<svg xmlns="http://www.w3.org/2000/svg" xmlns:xlink="http://www.w3.org/1999/xlink" width="194.703" height="80.056" viewBox="0 0 194.703 80.056">
  <defs>
    <filter id="Rectangle_19" x="0" y="2.894" width="77.162" height="77.162" filterUnits="userSpaceOnUse">
      <feOffset dx="4" dy="4" input="SourceAlpha"/>
      <feGaussianBlur stdDeviation="4" result="blur"/>
      <feFlood flood-opacity="0.141"/>
      <feComposite operator="in" in2="blur"/>
      <feComposite in="SourceGraphic"/>
    </filter>
  </defs>
  <g id="Group_101605" data-name="Group 101605" transform="translate(928 439.246)">
    <g id="Group_1" data-name="Group 1" transform="translate(-920 -428.352)">
      <g transform="matrix(1, 0, 0, 1, -8, -10.89)" filter="url(#Rectangle_19)">
        <rect id="Rectangle_19-2" data-name="Rectangle 19" width="53.162" height="53.162" rx="8" transform="translate(8 10.89)" fill="#fff"/>
      </g>
      <g id="Cart" transform="translate(5.827 6.801)">
        <path id="Subtraction_6" data-name="Subtraction 6" d="M21.569,34.662h-8.34a3.815,3.815,0,0,1-.795-.075c-.9-.188-1.355-.734-1.261-1.5a1.4,1.4,0,0,1,1.5-1.291c.645,0,1.284,0,2.045,0h2.536l.238,0,.238,0a3.726,3.726,0,0,0,.439-.021,2.034,2.034,0,0,0,1.374-.707,1.165,1.165,0,0,0,.261-.875,1.536,1.536,0,0,0-1.765-1.407H7.272l-.249,0-.249,0c-.165,0-.3-.005-.417-.017A1.992,1.992,0,0,1,4.968,28.1a1.128,1.128,0,0,1-.248-.871,1.51,1.51,0,0,1,1.688-1.36c.437,0,.9-.005,1.468-.005l1.188,0h1.019c.574,0,1.044,0,1.477,0,1.155-.007,1.96-.589,2-1.448s-.7-1.483-1.881-1.565a1.568,1.568,0,0,1-1.667-1.4,1.082,1.082,0,0,1,.264-.847,2.008,2.008,0,0,1,1.432-.652c.445-.024.883-.027,1.216-.027l.563,0,.6,0c.224,0,.42,0,.6-.005,1.118-.022,1.858-.582,1.886-1.426a1.686,1.686,0,0,0-1.8-1.556c-.636-.023-1.314-.033-2.2-.033q-.571,0-1.143,0H11.36c-.43,0-.873,0-1.309,0h-.74c-.168,0-.388,0-.608-.016a1.371,1.371,0,0,1-1.452-1.325,1.28,1.28,0,0,1,1.315-1.435c.822-.057,1.662-.06,2.474-.062.426,0,.867,0,1.3-.012l.175,0a11.523,11.523,0,0,0,1.421-.087,1.367,1.367,0,0,0,1.294-1.366,1.39,1.39,0,0,0-1.182-1.467c-.166-.045-.339-.076-.507-.1-.092-.016-.187-.032-.279-.051-.9-.182-1.326-.682-1.264-1.485a1.339,1.339,0,0,1,1.464-1.293c.542-.017,1.083-.019,1.494-.019H26.632c.935,0,1.863,0,2.727,0H33.5q2.863,0,5.726,0a2.438,2.438,0,0,1,1.834.535A2.36,2.36,0,0,1,41.5,10.54q-.543,10.974-1.084,21.949c-.074,1.509-.739,2.155-2.221,2.157l-.891,0a2.936,2.936,0,0,0-5.842.009l-2.647,0h-1.4a2.936,2.936,0,0,0-5.843,0ZM5.889,22.852c-.279,0-.561,0-.834-.006S4.5,22.84,4.22,22.84s-.541,0-.811,0-.541,0-.811,0c-.386,0-.705,0-1-.012A1.44,1.44,0,0,1,0,21.4a1.409,1.409,0,0,1,1.491-1.432c1.035-.037,1.988-.055,2.915-.055s1.824.019,2.676.056A1.373,1.373,0,0,1,8.549,21.4c-.028,1.122-.88,1.4-1.59,1.427C6.648,22.845,6.308,22.852,5.889,22.852Zm2.276-11.79c-.393,0-.772-.009-1.264-.023A1.438,1.438,0,0,1,5.306,9.6,1.41,1.41,0,0,1,6.8,8.172c.534-.019.82-.033,1.009-.043.151-.008.233-.012.323-.012s.216.006.462.018c.185.009.44.022.817.038a1.374,1.374,0,0,1,1.467,1.436c-.029,1.122-.88,1.4-1.589,1.426C8.889,11.054,8.533,11.062,8.165,11.062Zm28.2-3.734a1.608,1.608,0,0,1-1.508-.973,5.717,5.717,0,0,0-4.04-4.142,3.124,3.124,0,0,0-1-.165c-.073,0-.148,0-.222.008V0a8.805,8.805,0,0,1,4.861,1.956,7.008,7.008,0,0,1,2.573,4.159c.012.071.033.147.055.226.079.288.169.614-.15.831A1.01,1.01,0,0,1,36.36,7.328Zm-13.538,0a1.01,1.01,0,0,1-.57-.157c-.319-.218-.229-.544-.15-.831.022-.08.043-.155.055-.226A7.008,7.008,0,0,1,24.73,1.955,8.8,8.8,0,0,1,29.59,0V2.056c-.07,0-.145-.008-.222-.008a3.121,3.121,0,0,0-1,.165,5.72,5.72,0,0,0-4.041,4.142A1.606,1.606,0,0,1,22.822,7.328Z" transform="translate(0 0)" fill="#0288d1"/>
        <path id="Subtraction_5" data-name="Subtraction 5" d="M2.318,4.636A2.318,2.318,0,1,1,4.636,2.318,2.321,2.321,0,0,1,2.318,4.636Zm0-3.416a1.1,1.1,0,1,0,1.1,1.1A1.1,1.1,0,0,0,2.318,1.22Z" transform="translate(32.064 32.637)" fill="#0288d1"/>
        <path id="Subtraction_4" data-name="Subtraction 4" d="M2.318,4.636A2.318,2.318,0,1,1,4.636,2.318,2.321,2.321,0,0,1,2.318,4.636Zm0-3.416a1.1,1.1,0,1,0,1.1,1.1A1.1,1.1,0,0,0,2.318,1.22Z" transform="translate(22.173 32.637)" fill="#0288d1"/>
        <path id="Path_17" data-name="Path 17" d="M1652.574,156.049a1.436,1.436,0,0,1-1.594-1.435,1.4,1.4,0,0,1,1.491-1.432c1.862-.066,6.821-.08,8.681,0a1.376,1.376,0,0,1,1.467,1.436c-.025.987-.7,1.387-1.59,1.427C1660.119,156.086,1653.449,156.072,1652.574,156.049Z" transform="translate(-1628.239 -139.086)" fill="#fff"/>
        <path id="Path_18" data-name="Path 18" d="M1.595,2.922A1.436,1.436,0,0,1,0,1.487,1.4,1.4,0,0,1,1.492.055c1.862-.066,7.439-.08,9.3,0a1.376,1.376,0,0,1,1.467,1.436c-.025.987-.7,1.387-1.59,1.427C9.757,2.959,2.469,2.946,1.595,2.922Z" transform="translate(30.013 18.344) rotate(90)" fill="#fff"/>
      </g>
    </g>
    <path id="Path_21" data-name="Path 21" d="M-171.045-64.86a6.292,6.292,0,0,1-.038.747,2.038,2.038,0,0,1-.113.5.664.664,0,0,1-.189.279.39.39,0,0,1-.249.091h-4.89V-47.5a.42.42,0,0,1-.1.272.689.689,0,0,1-.324.2,3.179,3.179,0,0,1-.611.121,8.428,8.428,0,0,1-.958.045,8.428,8.428,0,0,1-.958-.045,3.179,3.179,0,0,1-.611-.121.689.689,0,0,1-.324-.2.42.42,0,0,1-.1-.272V-63.245h-4.89a.381.381,0,0,1-.257-.091.706.706,0,0,1-.181-.279,2.037,2.037,0,0,1-.113-.5,6.292,6.292,0,0,1-.038-.747,6.647,6.647,0,0,1,.038-.77,2.052,2.052,0,0,1,.113-.506.639.639,0,0,1,.181-.272.4.4,0,0,1,.257-.083h13.764a.412.412,0,0,1,.249.083.605.605,0,0,1,.189.272,2.053,2.053,0,0,1,.113.506A6.647,6.647,0,0,1-171.045-64.86Zm11.213,17.431a.4.4,0,0,1-.151.332,1.035,1.035,0,0,1-.475.174,6.442,6.442,0,0,1-.958.053,6.538,6.538,0,0,1-.988-.053.851.851,0,0,1-.438-.174.434.434,0,0,1-.128-.332V-48.5a6.12,6.12,0,0,1-1.894,1.388,5.5,5.5,0,0,1-2.362.5,6.607,6.607,0,0,1-1.969-.279,4.436,4.436,0,0,1-1.554-.83,3.735,3.735,0,0,1-1.019-1.366,4.646,4.646,0,0,1-.362-1.9,4.3,4.3,0,0,1,.46-2.045,3.743,3.743,0,0,1,1.373-1.434,6.838,6.838,0,0,1,2.271-.838,16.228,16.228,0,0,1,3.154-.272h1.313v-.815a4.282,4.282,0,0,0-.128-1.109,1.85,1.85,0,0,0-.423-.792,1.744,1.744,0,0,0-.785-.468,4.187,4.187,0,0,0-1.215-.151,6.246,6.246,0,0,0-1.7.211,9.734,9.734,0,0,0-1.321.468q-.574.257-.958.468a1.4,1.4,0,0,1-.626.211.45.45,0,0,1-.294-.106.77.77,0,0,1-.211-.3,2.086,2.086,0,0,1-.128-.483,4.081,4.081,0,0,1-.045-.634,2.874,2.874,0,0,1,.075-.739,1.139,1.139,0,0,1,.287-.49,2.822,2.822,0,0,1,.739-.483,8.687,8.687,0,0,1,1.238-.49,11.446,11.446,0,0,1,1.547-.37,10.228,10.228,0,0,1,1.728-.143,10.32,10.32,0,0,1,2.709.309,4.569,4.569,0,0,1,1.849.951,3.7,3.7,0,0,1,1.056,1.653,7.722,7.722,0,0,1,.332,2.4Zm-3.728-5.765h-1.449a7.784,7.784,0,0,0-1.57.136,3.01,3.01,0,0,0-1.056.407,1.679,1.679,0,0,0-.6.656,1.981,1.981,0,0,0-.189.883,1.7,1.7,0,0,0,.536,1.328,2.141,2.141,0,0,0,1.487.483,2.784,2.784,0,0,0,1.471-.407A6.1,6.1,0,0,0-163.56-50.9Zm11.606,6.173a9.892,9.892,0,0,1-.272,2.566,4.434,4.434,0,0,1-.822,1.653,3.438,3.438,0,0,1-1.381,1.011,5.12,5.12,0,0,1-1.947.34,5.766,5.766,0,0,1-1.056-.083,2.956,2.956,0,0,1-.634-.174.568.568,0,0,1-.272-.226.977.977,0,0,1-.106-.309,3.845,3.845,0,0,1-.045-.392q-.015-.219-.015-.566,0-.423.023-.7a1.756,1.756,0,0,1,.083-.445.663.663,0,0,1,.136-.241.265.265,0,0,1,.2-.075,2.483,2.483,0,0,1,.309.038,3.179,3.179,0,0,0,.506.038,1.743,1.743,0,0,0,.679-.121,1.054,1.054,0,0,0,.468-.385,1.917,1.917,0,0,0,.272-.679,6.852,6.852,0,0,0,.091-1.321V-60.906a.41.41,0,0,1,.091-.264.713.713,0,0,1,.3-.2,2.45,2.45,0,0,1,.574-.128,7.664,7.664,0,0,1,.921-.045,7.665,7.665,0,0,1,.921.045,2.591,2.591,0,0,1,.581.128.714.714,0,0,1,.309.2.41.41,0,0,1,.091.264Zm.287-18.472a2.152,2.152,0,0,1-.46,1.585,2.573,2.573,0,0,1-1.743.438,2.578,2.578,0,0,1-1.72-.423,2.043,2.043,0,0,1-.453-1.524,2.158,2.158,0,0,1,.468-1.592,2.545,2.545,0,0,1,1.736-.445,2.541,2.541,0,0,1,1.728.43A2.1,2.1,0,0,1-151.668-65.494Zm15.952,10.9a1.464,1.464,0,0,1-.309,1.026,1.108,1.108,0,0,1-.853.332h-8.195a5.593,5.593,0,0,0,.2,1.562,2.98,2.98,0,0,0,.649,1.192,2.827,2.827,0,0,0,1.147.747,4.912,4.912,0,0,0,1.683.257,9.468,9.468,0,0,0,1.751-.143,11.609,11.609,0,0,0,1.305-.317q.551-.174.913-.317a1.694,1.694,0,0,1,.589-.143.444.444,0,0,1,.226.053.393.393,0,0,1,.151.189,1.262,1.262,0,0,1,.083.385q.023.249.023.626,0,.332-.015.566a3.555,3.555,0,0,1-.045.4.958.958,0,0,1-.091.279,1.047,1.047,0,0,1-.158.219,1.835,1.835,0,0,1-.536.287,8.481,8.481,0,0,1-1.117.355,15.276,15.276,0,0,1-1.554.3,12.918,12.918,0,0,1-1.871.128,9.908,9.908,0,0,1-3.147-.453,5.6,5.6,0,0,1-2.256-1.373,5.713,5.713,0,0,1-1.351-2.324,10.913,10.913,0,0,1-.445-3.29,10.456,10.456,0,0,1,.468-3.237,6.787,6.787,0,0,1,1.358-2.445,5.84,5.84,0,0,1,2.166-1.532,7.451,7.451,0,0,1,2.875-.528,7.529,7.529,0,0,1,2.89.5,5.214,5.214,0,0,1,1.969,1.381,5.571,5.571,0,0,1,1.132,2.09,9.1,9.1,0,0,1,.362,2.626Zm-3.682-1.087a3.9,3.9,0,0,0-.641-2.513,2.481,2.481,0,0,0-2.12-.913,2.754,2.754,0,0,0-1.26.272,2.58,2.58,0,0,0-.89.732,3.339,3.339,0,0,0-.543,1.087,5.414,5.414,0,0,0-.219,1.336Zm15.454-4q0,.543-.03.89a2.74,2.74,0,0,1-.091.543.532.532,0,0,1-.158.272.4.4,0,0,1-.249.075.832.832,0,0,1-.272-.053q-.151-.053-.34-.113t-.415-.113a2.192,2.192,0,0,0-.5-.053,1.678,1.678,0,0,0-.634.128,2.674,2.674,0,0,0-.656.4,4.876,4.876,0,0,0-.709.724,11.792,11.792,0,0,0-.792,1.117v8.391a.41.41,0,0,1-.091.264.666.666,0,0,1-.309.189,2.692,2.692,0,0,1-.581.113,9.182,9.182,0,0,1-.921.038,9.183,9.183,0,0,1-.921-.038,2.691,2.691,0,0,1-.581-.113.666.666,0,0,1-.309-.189.41.41,0,0,1-.09-.264V-60.936a.465.465,0,0,1,.075-.264.553.553,0,0,1,.272-.189,2.168,2.168,0,0,1,.506-.113,6.615,6.615,0,0,1,.777-.038,6.98,6.98,0,0,1,.8.038,1.815,1.815,0,0,1,.491.113.554.554,0,0,1,.249.189.465.465,0,0,1,.075.264v1.675a10.737,10.737,0,0,1,1-1.245,5.632,5.632,0,0,1,.89-.777,2.8,2.8,0,0,1,.845-.4,3.255,3.255,0,0,1,.845-.113q.2,0,.423.023a4.1,4.1,0,0,1,.468.075,3.1,3.1,0,0,1,.423.121.836.836,0,0,1,.264.143.469.469,0,0,1,.121.166,1.309,1.309,0,0,1,.068.249,3.7,3.7,0,0,1,.045.475Q-123.944-60.227-123.944-59.683ZM-106.136-47.5a.42.42,0,0,1-.1.272.688.688,0,0,1-.324.2,3.166,3.166,0,0,1-.6.121,8.223,8.223,0,0,1-.951.045,8.593,8.593,0,0,1-.973-.045,3.008,3.008,0,0,1-.6-.121.686.686,0,0,1-.317-.2.42.42,0,0,1-.1-.272V-55.4h-7.3V-47.5a.441.441,0,0,1-.091.272.636.636,0,0,1-.317.2,3.166,3.166,0,0,1-.6.121,8.388,8.388,0,0,1-.966.045,8.428,8.428,0,0,1-.958-.045,3.178,3.178,0,0,1-.611-.121.688.688,0,0,1-.324-.2.42.42,0,0,1-.1-.272V-65.946a.42.42,0,0,1,.1-.272.688.688,0,0,1,.324-.2,3.178,3.178,0,0,1,.611-.121,8.429,8.429,0,0,1,.958-.045,8.389,8.389,0,0,1,.966.045,3.166,3.166,0,0,1,.6.121.636.636,0,0,1,.317.2.441.441,0,0,1,.091.272v7.169h7.3v-7.169a.42.42,0,0,1,.1-.272.686.686,0,0,1,.317-.2,3.008,3.008,0,0,1,.6-.121,8.6,8.6,0,0,1,.973-.045,8.224,8.224,0,0,1,.951.045,3.166,3.166,0,0,1,.6.121.689.689,0,0,1,.324.2.42.42,0,0,1,.1.272Zm16.8.03a.465.465,0,0,1-.075.264.552.552,0,0,1-.264.189,2.036,2.036,0,0,1-.5.113,6.611,6.611,0,0,1-.777.038,6.938,6.938,0,0,1-.807-.038,1.913,1.913,0,0,1-.49-.113.552.552,0,0,1-.257-.189.465.465,0,0,1-.075-.264v-1.554a8.547,8.547,0,0,1-2.271,1.811,5.1,5.1,0,0,1-2.392.6,5.367,5.367,0,0,1-2.332-.453A4.025,4.025,0,0,1-101.1-48.3a4.977,4.977,0,0,1-.83-1.819,11.209,11.209,0,0,1-.249-2.573v-8.24a.435.435,0,0,1,.083-.264.612.612,0,0,1,.3-.189,2.712,2.712,0,0,1,.589-.113q.37-.038.913-.038a9.188,9.188,0,0,1,.921.038,2.693,2.693,0,0,1,.581.113.666.666,0,0,1,.309.189.41.41,0,0,1,.091.264v7.606a7.273,7.273,0,0,0,.136,1.615,2.823,2.823,0,0,0,.415.958,1.909,1.909,0,0,0,.709.619,2.185,2.185,0,0,0,1,.219,2.483,2.483,0,0,0,1.456-.528,8.7,8.7,0,0,0,1.562-1.539v-8.949a.434.434,0,0,1,.083-.264.612.612,0,0,1,.3-.189,2.693,2.693,0,0,1,.581-.113,9.188,9.188,0,0,1,.921-.038,9.189,9.189,0,0,1,.921.038,2.552,2.552,0,0,1,.573.113.664.664,0,0,1,.3.189.41.41,0,0,1,.091.264Zm17.371-6.912a12.242,12.242,0,0,1-.392,3.23,7.416,7.416,0,0,1-1.132,2.445,5.038,5.038,0,0,1-1.819,1.554,5.379,5.379,0,0,1-2.452.543,5.948,5.948,0,0,1-1.268-.128,4.323,4.323,0,0,1-1.124-.415,6.179,6.179,0,0,1-1.056-.724,9.977,9.977,0,0,1-1.064-1.056v1.464a.459.459,0,0,1-.083.279.605.605,0,0,1-.272.189,1.875,1.875,0,0,1-.506.106q-.317.03-.77.03-.468,0-.777-.03a1.856,1.856,0,0,1-.5-.106.552.552,0,0,1-.264-.189.492.492,0,0,1-.075-.279V-67.32a.441.441,0,0,1,.091-.272.676.676,0,0,1,.309-.2,2.589,2.589,0,0,1,.581-.128,7.663,7.663,0,0,1,.921-.045,7.663,7.663,0,0,1,.921.045,2.589,2.589,0,0,1,.581.128.676.676,0,0,1,.309.2.441.441,0,0,1,.091.272v7.44a7.925,7.925,0,0,1,1.026-.875,6.359,6.359,0,0,1,1.026-.6,4.7,4.7,0,0,1,1.056-.34,6,6,0,0,1,1.147-.106,5.028,5.028,0,0,1,2.535.6,4.9,4.9,0,0,1,1.7,1.607,7.168,7.168,0,0,1,.958,2.362A13.014,13.014,0,0,1-71.968-54.386Zm-3.939.272a10.473,10.473,0,0,0-.128-1.66,4.741,4.741,0,0,0-.445-1.419,2.753,2.753,0,0,0-.822-.989,2.1,2.1,0,0,0-1.275-.37,2.628,2.628,0,0,0-.74.106,2.745,2.745,0,0,0-.747.362,5.282,5.282,0,0,0-.792.664,9.481,9.481,0,0,0-.86,1.011v4.467a8.085,8.085,0,0,0,1.532,1.562,2.556,2.556,0,0,0,1.532.536,2.056,2.056,0,0,0,1.253-.377,3.056,3.056,0,0,0,.853-.981,4.578,4.578,0,0,0,.49-1.373A7.984,7.984,0,0,0-75.907-54.115Z" transform="translate(-662.612 -330.393)" fill="#fff"/>
    <path id="Path_22" data-name="Path 22" d="M-155.124-61.6A9.744,9.744,0,0,1-157-61.771a5.7,5.7,0,0,1-1.566-.534,3.966,3.966,0,0,1-1.177-.933,3.293,3.293,0,0,1-.688-1.367,23.317,23.317,0,0,1-3.088,1.675,28.729,28.729,0,0,1-3.7,1.376,32.036,32.036,0,0,1-4.147.933,28.213,28.213,0,0,1-4.419.344,19.545,19.545,0,0,1-5.324-.616,9.106,9.106,0,0,1-3.432-1.72,6.19,6.19,0,0,1-1.847-2.626,9.7,9.7,0,0,1-.552-3.332,9.366,9.366,0,0,1,.435-2.889,16.264,16.264,0,0,1,.96-2.381,2.012,2.012,0,0,1,.263-.435.981.981,0,0,1,.317-.254,1.287,1.287,0,0,1,.444-.118q.263-.027.661-.027a2.1,2.1,0,0,1,.706.081.325.325,0,0,1,.2.335,2.082,2.082,0,0,1-.163.652q-.163.435-.353.978t-.344,1.159a4.92,4.92,0,0,0-.154,1.2,4.634,4.634,0,0,0,.5,2.182,4.126,4.126,0,0,0,1.576,1.6,8.576,8.576,0,0,0,2.78.987,21.757,21.757,0,0,0,4.129.335,26.142,26.142,0,0,0,3.432-.226,29.229,29.229,0,0,0,3.3-.625,27.676,27.676,0,0,0,3.024-.942,23.262,23.262,0,0,0,2.626-1.168,14.11,14.11,0,0,0,2.074-1.313,7.185,7.185,0,0,0,1.394-1.376q.127-.181.561-.181.652,0,.652.2a1.445,1.445,0,0,1-.054.38,2.342,2.342,0,0,0-.054.58,4.272,4.272,0,0,0,.272,1.621,2.883,2.883,0,0,0,.724,1.068,2.735,2.735,0,0,0,1.05.589,4.223,4.223,0,0,0,1.231.181Zm-18.581,5.7a4.644,4.644,0,0,1,.806-.978,1.371,1.371,0,0,1,.933-.38,2.153,2.153,0,0,1,.67.136,4.148,4.148,0,0,1,1.032.607,5.92,5.92,0,0,1,.96.924,1.464,1.464,0,0,1,.344.924,1.925,1.925,0,0,1-.154.7,6.3,6.3,0,0,1-.516.969,5.076,5.076,0,0,1-.815,1,1.319,1.319,0,0,1-.906.38,2.29,2.29,0,0,1-.67-.136,3.943,3.943,0,0,1-1.032-.589,4.452,4.452,0,0,1-.942-.933,1.608,1.608,0,0,1-.344-.933,2.307,2.307,0,0,1,.136-.715A4.494,4.494,0,0,1-173.7-55.894ZM-138.7-66.869a2.816,2.816,0,0,0-.317-.86A8.242,8.242,0,0,0-139.7-68.8a11.264,11.264,0,0,0-1.005-1.159,15.735,15.735,0,0,0-1.268-1.15l-.072.054q.036.235.072.453a2.277,2.277,0,0,1,.036.362,4.948,4.948,0,0,1-.335,1.757,4.811,4.811,0,0,1-.969,1.576,9.9,9.9,0,0,0,1.376.389q.67.136,1.25.208a3.747,3.747,0,0,0,1.087-.091A1.414,1.414,0,0,0-138.7-66.869Zm-8.24-1.25a4.476,4.476,0,0,0,.851-.389,4.172,4.172,0,0,0,.761-.57,3.677,3.677,0,0,0,.589-.715,2.489,2.489,0,0,0,.335-.842,3.615,3.615,0,0,0-.172-.733,3.587,3.587,0,0,0-.362-.77,2.458,2.458,0,0,0-.525-.607,1,1,0,0,0-.643-.244,2.884,2.884,0,0,0-.978.19,3.976,3.976,0,0,0-1.005.543,3.8,3.8,0,0,0-.842.86,3.156,3.156,0,0,0-.507,1.123,1.813,1.813,0,0,0,.643,1.1A5.406,5.406,0,0,0-146.938-68.119Zm6.592,6.339a9.03,9.03,0,0,1-1.557-.154q-.869-.154-1.8-.417t-1.847-.616a17.779,17.779,0,0,1-1.693-.752,19.737,19.737,0,0,1-3.713,1.548,14.447,14.447,0,0,1-4.165.57,1.422,1.422,0,0,1-.552-.118,1.763,1.763,0,0,1-.516-.335,1.607,1.607,0,0,1-.38-.552,1.924,1.924,0,0,1-.145-.77v-1.539a1.293,1.293,0,0,1,.163-.661,1.3,1.3,0,0,1,.435-.453,2.164,2.164,0,0,1,.625-.263,2.869,2.869,0,0,1,.715-.091,14.253,14.253,0,0,0,1.856-.118,10.793,10.793,0,0,0,1.585-.317,3.043,3.043,0,0,1-.507-.942,4.318,4.318,0,0,1-.235-1.5,4.273,4.273,0,0,1,.29-1.512,7.282,7.282,0,0,1,.761-1.476,9.136,9.136,0,0,1,1.041-1.295,7.655,7.655,0,0,1,1.15-.987v-.091q-.416-.054-.616-.063a1.825,1.825,0,0,1-.4-.063.488.488,0,0,1-.308-.471,2.376,2.376,0,0,1,.118-.543q.118-.4.29-.915t.389-1.059q.217-.543.435-1a6.181,6.181,0,0,1,.471-.86.72.72,0,0,1,.634-.317,1.616,1.616,0,0,1,.561.136q.344.136.715.326t.733.417q.362.226.616.389a32.1,32.1,0,0,1,3.151,2.2,20.65,20.65,0,0,1,2.852,2.716,14,14,0,0,1,2.074,3.151,8.062,8.062,0,0,1,.8,3.5,4.881,4.881,0,0,1-.208,1.4,6.323,6.323,0,0,1-.57,1.331,7.054,7.054,0,0,1-.833,1.168,5.747,5.747,0,0,1-1.014.915,2.318,2.318,0,0,1-.679.344A2.326,2.326,0,0,1-140.346-61.78Zm30.878.181a6.641,6.641,0,0,1-1.485-.154,1.742,1.742,0,0,1-1.032-.625l-.235.109a11.337,11.337,0,0,1-.326,1.992,14.8,14.8,0,0,1-.761,2.255,15.961,15.961,0,0,1-1.177,2.246,10.257,10.257,0,0,1-1.585,1.956,7.734,7.734,0,0,1-1.974,1.385,5.281,5.281,0,0,1-2.345.525,7.3,7.3,0,0,1-1.168-.109,10.065,10.065,0,0,1-1.4-.344,14.36,14.36,0,0,1-1.53-.589,11.756,11.756,0,0,1-1.548-.842,3.424,3.424,0,0,1-.407-.3,1.128,1.128,0,0,1-.254-.326,1.414,1.414,0,0,1-.136-.48,6.011,6.011,0,0,1-.036-.724,2.272,2.272,0,0,1,.091-.788.341.341,0,0,1,.344-.208,1.266,1.266,0,0,1,.543.208q.362.208.824.462a8.756,8.756,0,0,0,.987.462,2.831,2.831,0,0,0,1.05.208,5.7,5.7,0,0,0,2.065-.4,9.894,9.894,0,0,0,1.983-1.041,13.536,13.536,0,0,0,1.775-1.431,14.817,14.817,0,0,0,1.44-1.576,9.745,9.745,0,0,0,.978-1.485,3.216,3.216,0,0,0,.4-1.15q-.072-.127-.254-.38t-.407-.58q-.226-.326-.48-.679t-.489-.7q-.453-.634-.815-1.222t-.67-1.15a3.6,3.6,0,0,1-.263-.634,2.221,2.221,0,0,1-.1-.652,3.519,3.519,0,0,1,.208-1.005,9.913,9.913,0,0,1,.516-1.277,6.76,6.76,0,0,1,.661-1.1q.353-.471.661-.471a.466.466,0,0,1,.435.272q.145.272.272.543.4.924.779,1.648a9.486,9.486,0,0,0,.833,1.322,5.658,5.658,0,0,0,.806.906,4.082,4.082,0,0,0,.951.634,4.809,4.809,0,0,0,1.177.38,7.721,7.721,0,0,0,1.467.127ZM-88.9-71.052a4.152,4.152,0,0,1-.136.7,11.507,11.507,0,0,1-.426,1.313q-.38,1.032-.661,1.6t-.661.57a9.907,9.907,0,0,1-1.132-.072,9.332,9.332,0,0,0-1.041-.072,9.037,9.037,0,0,0-2.182.263,14.867,14.867,0,0,0-2.055.67,20.256,20.256,0,0,0-1.893.887q-.9.48-1.693.915-1.123.6-2.182,1.1a14.694,14.694,0,0,1-2.336.851,19.371,19.371,0,0,1-2.925.543,35.288,35.288,0,0,1-3.966.19,1.422,1.422,0,0,1-.552-.118,1.679,1.679,0,0,1-.516-.344,1.707,1.707,0,0,1-.38-.561,1.875,1.875,0,0,1-.145-.752v-1.539a1.293,1.293,0,0,1,.163-.661,1.3,1.3,0,0,1,.435-.453,2.163,2.163,0,0,1,.625-.263,2.941,2.941,0,0,1,.733-.091q2.173,0,3.776-.127t2.807-.335a19.712,19.712,0,0,0,2.11-.471q.906-.263,1.684-.543t1.521-.543a16.529,16.529,0,0,1,1.648-.48v-.091q-1.068-.344-2.209-.733t-2.209-.715q-1.069-.326-2.028-.534a8.074,8.074,0,0,0-1.684-.208,4.008,4.008,0,0,0-1.322.181,3.837,3.837,0,0,0-.833.4,4.513,4.513,0,0,0-.525.4A.615.615,0,0,1-109.5-70a.285.285,0,0,1-.281-.181,1.712,1.712,0,0,1-.081-.634,4.5,4.5,0,0,1,.036-.661,1.4,1.4,0,0,1,.127-.407,6.7,6.7,0,0,1,1.766-2.689,3.519,3.519,0,0,1,2.327-.878,9.718,9.718,0,0,1,1.856.181,18.823,18.823,0,0,1,1.911.48q.978.3,2,.688t2.146.824a28.462,28.462,0,0,0,4.129,1.34,18.294,18.294,0,0,0,4.346.525Q-88.9-71.415-88.9-71.052Zm-12.731,11.971a4.645,4.645,0,0,1,.806-.978,1.371,1.371,0,0,1,.933-.38,2.153,2.153,0,0,1,.67.136,4.148,4.148,0,0,1,1.032.607,5.921,5.921,0,0,1,.96.924,1.464,1.464,0,0,1,.344.924,1.925,1.925,0,0,1-.154.7,6.3,6.3,0,0,1-.516.969,5.075,5.075,0,0,1-.815,1,1.319,1.319,0,0,1-.906.38,2.29,2.29,0,0,1-.67-.136,3.942,3.942,0,0,1-1.032-.589,4.45,4.45,0,0,1-.942-.933,1.608,1.608,0,0,1-.344-.933,2.306,2.306,0,0,1,.136-.715A4.493,4.493,0,0,1-101.627-59.082ZM-80.021-61.6a5.2,5.2,0,0,1-4.011-1.53,7.879,7.879,0,0,1-1.675-4.844q-.127-1.648-.254-3.5t-.281-3.685q-.154-1.829-.344-3.513t-.444-2.988a1.622,1.622,0,0,1,.353-.915,13.805,13.805,0,0,1,.933-1.15q.543-.58.9-.906a.985.985,0,0,1,.57-.326.378.378,0,0,1,.4.254q.181,1,.272,1.974t.145,1.956l.6,10.739a8.446,8.446,0,0,0,.226,1.53,3.117,3.117,0,0,0,.534,1.15,2.342,2.342,0,0,0,.951.724,3.744,3.744,0,0,0,1.476.254Zm0,0a1.421,1.421,0,0,1-.552-.118,1.763,1.763,0,0,1-.516-.335,1.607,1.607,0,0,1-.38-.552,1.923,1.923,0,0,1-.145-.77v-1.539a1.293,1.293,0,0,1,.163-.661,1.3,1.3,0,0,1,.435-.453,2.164,2.164,0,0,1,.625-.263,2.941,2.941,0,0,1,.733-.091q.8,0,1.594-.072t1.512-.208A10.985,10.985,0,0,0-75.222-67a5.374,5.374,0,0,0,1.05-.453,9.424,9.424,0,0,0-.589-2.028,10.941,10.941,0,0,0-1.2-2.191,2.717,2.717,0,0,1-.29-.507,1.51,1.51,0,0,1-.109-.6,2.412,2.412,0,0,1,.217-.887,6.73,6.73,0,0,1,.525-1.014A5.754,5.754,0,0,1-75-75.507q.317-.344.534-.344a.549.549,0,0,1,.417.2,4.512,4.512,0,0,1,.417.561,10.191,10.191,0,0,1,.833,1.44,15.457,15.457,0,0,1,.715,1.757,14.354,14.354,0,0,1,.507,1.929,10.509,10.509,0,0,1,.19,1.974,8.409,8.409,0,0,1-.217,1.838,13.267,13.267,0,0,1-.525,1.784,2.843,2.843,0,0,1-.417.7,2.394,2.394,0,0,1-.706.534,9.014,9.014,0,0,1-1.358.607,14.854,14.854,0,0,1-1.675.489,17.745,17.745,0,0,1-1.856.326A15.467,15.467,0,0,1-80.021-61.6Zm-.091-21.587a3.932,3.932,0,0,1,.67-.869,1.116,1.116,0,0,1,.779-.344,1.638,1.638,0,0,1,.552.127,3.815,3.815,0,0,1,.878.543,4.545,4.545,0,0,1,.8.815,1.421,1.421,0,0,1,.29.851,1.883,1.883,0,0,1-.127.625,4.986,4.986,0,0,1-.435.86,4.947,4.947,0,0,1-.7.915,1.056,1.056,0,0,1-.752.353,1.666,1.666,0,0,1-.57-.127,3.54,3.54,0,0,1-.86-.543,5.071,5.071,0,0,1-.788-.86,1.42,1.42,0,0,1-.3-.806,2.1,2.1,0,0,1,.118-.661A4.413,4.413,0,0,1-80.112-83.186Zm4.763-.272a3.931,3.931,0,0,1,.67-.869,1.134,1.134,0,0,1,.8-.344,1.594,1.594,0,0,1,.561.127,3.642,3.642,0,0,1,.851.543,4.584,4.584,0,0,1,.824.815,1.393,1.393,0,0,1,.3.851,1.882,1.882,0,0,1-.127.625,4.072,4.072,0,0,1-.471.86,4.069,4.069,0,0,1-.679.924,1.068,1.068,0,0,1-.752.344,1.712,1.712,0,0,1-.561-.127,3.712,3.712,0,0,1-.887-.543A4.189,4.189,0,0,1-75.6-81.1a1.49,1.49,0,0,1-.29-.815,2.051,2.051,0,0,1,.118-.643A5.382,5.382,0,0,1-75.349-83.458Z" transform="translate(-661.951 -354.285)" fill="#fff"/>
  </g>
</svg>
